<?xml version="1.0" encoding="utf-8"?>
<svg xmlns="http://www.w3.org/2000/svg" xmlns:xlink="http://www.w3.org/1999/xlink" style="margin: auto; background: none; display: block; shape-rendering: auto;" width="210px" height="210px" viewBox="0 0 100 100" preserveAspectRatio="xMidYMid">
<g transform="rotate(0 50 50)">
  <rect x="48.5" y="24" rx="1.5" ry="12" width="3" height="24" fill="#9c0404">
    <animate attributeName="opacity" values="1;0" keyTimes="0;1" dur="0.44642857142857145s" begin="-0.44196428571428575s" repeatCount="indefinite"></animate>
  </rect>
</g><g transform="rotate(3.6 50 50)">
  <rect x="48.5" y="24" rx="1.5" ry="12" width="3" height="24" fill="#5a0b0b">
    <animate attributeName="opacity" values="1;0" keyTimes="0;1" dur="0.44642857142857145s" begin="-0.43750000000000006s" repeatCount="indefinite"></animate>
  </rect>
</g><g transform="rotate(7.2 50 50)">
  <rect x="48.5" y="24" rx="1.5" ry="12" width="3" height="24" fill="#290e0e">
    <animate attributeName="opacity" values="1;0" keyTimes="0;1" dur="0.44642857142857145s" begin="-0.43303571428571436s" repeatCount="indefinite"></animate>
  </rect>
</g><g transform="rotate(10.8 50 50)">
  <rect x="48.5" y="24" rx="1.5" ry="12" width="3" height="24" fill="#000000">
    <animate attributeName="opacity" values="1;0" keyTimes="0;1" dur="0.44642857142857145s" begin="-0.4285714285714286s" repeatCount="indefinite"></animate>
  </rect>
</g><g transform="rotate(14.4 50 50)">
  <rect x="48.5" y="24" rx="1.5" ry="12" width="3" height="24" fill="#3f3f3f">
    <animate attributeName="opacity" values="1;0" keyTimes="0;1" dur="0.44642857142857145s" begin="-0.4241071428571429s" repeatCount="indefinite"></animate>
  </rect>
</g><g transform="rotate(18 50 50)">
  <rect x="48.5" y="24" rx="1.5" ry="12" width="3" height="24" fill="#9c0404">
    <animate attributeName="opacity" values="1;0" keyTimes="0;1" dur="0.44642857142857145s" begin="-0.4196428571428572s" repeatCount="indefinite"></animate>
  </rect>
</g><g transform="rotate(21.6 50 50)">
  <rect x="48.5" y="24" rx="1.5" ry="12" width="3" height="24" fill="#5a0b0b">
    <animate attributeName="opacity" values="1;0" keyTimes="0;1" dur="0.44642857142857145s" begin="-0.4151785714285715s" repeatCount="indefinite"></animate>
  </rect>
</g><g transform="rotate(25.2 50 50)">
  <rect x="48.5" y="24" rx="1.5" ry="12" width="3" height="24" fill="#290e0e">
    <animate attributeName="opacity" values="1;0" keyTimes="0;1" dur="0.44642857142857145s" begin="-0.41071428571428575s" repeatCount="indefinite"></animate>
  </rect>
</g><g transform="rotate(28.8 50 50)">
  <rect x="48.5" y="24" rx="1.5" ry="12" width="3" height="24" fill="#000000">
    <animate attributeName="opacity" values="1;0" keyTimes="0;1" dur="0.44642857142857145s" begin="-0.40625000000000006s" repeatCount="indefinite"></animate>
  </rect>
</g><g transform="rotate(32.4 50 50)">
  <rect x="48.5" y="24" rx="1.5" ry="12" width="3" height="24" fill="#3f3f3f">
    <animate attributeName="opacity" values="1;0" keyTimes="0;1" dur="0.44642857142857145s" begin="-0.40178571428571436s" repeatCount="indefinite"></animate>
  </rect>
</g><g transform="rotate(36 50 50)">
  <rect x="48.5" y="24" rx="1.5" ry="12" width="3" height="24" fill="#9c0404">
    <animate attributeName="opacity" values="1;0" keyTimes="0;1" dur="0.44642857142857145s" begin="-0.3973214285714286s" repeatCount="indefinite"></animate>
  </rect>
</g><g transform="rotate(39.6 50 50)">
  <rect x="48.5" y="24" rx="1.5" ry="12" width="3" height="24" fill="#5a0b0b">
    <animate attributeName="opacity" values="1;0" keyTimes="0;1" dur="0.44642857142857145s" begin="-0.3928571428571429s" repeatCount="indefinite"></animate>
  </rect>
</g><g transform="rotate(43.2 50 50)">
  <rect x="48.5" y="24" rx="1.5" ry="12" width="3" height="24" fill="#290e0e">
    <animate attributeName="opacity" values="1;0" keyTimes="0;1" dur="0.44642857142857145s" begin="-0.3883928571428572s" repeatCount="indefinite"></animate>
  </rect>
</g><g transform="rotate(46.8 50 50)">
  <rect x="48.5" y="24" rx="1.5" ry="12" width="3" height="24" fill="#000000">
    <animate attributeName="opacity" values="1;0" keyTimes="0;1" dur="0.44642857142857145s" begin="-0.38392857142857145s" repeatCount="indefinite"></animate>
  </rect>
</g><g transform="rotate(50.4 50 50)">
  <rect x="48.5" y="24" rx="1.5" ry="12" width="3" height="24" fill="#3f3f3f">
    <animate attributeName="opacity" values="1;0" keyTimes="0;1" dur="0.44642857142857145s" begin="-0.37946428571428575s" repeatCount="indefinite"></animate>
  </rect>
</g><g transform="rotate(54 50 50)">
  <rect x="48.5" y="24" rx="1.5" ry="12" width="3" height="24" fill="#9c0404">
    <animate attributeName="opacity" values="1;0" keyTimes="0;1" dur="0.44642857142857145s" begin="-0.37500000000000006s" repeatCount="indefinite"></animate>
  </rect>
</g><g transform="rotate(57.6 50 50)">
  <rect x="48.5" y="24" rx="1.5" ry="12" width="3" height="24" fill="#5a0b0b">
    <animate attributeName="opacity" values="1;0" keyTimes="0;1" dur="0.44642857142857145s" begin="-0.37053571428571436s" repeatCount="indefinite"></animate>
  </rect>
</g><g transform="rotate(61.2 50 50)">
  <rect x="48.5" y="24" rx="1.5" ry="12" width="3" height="24" fill="#290e0e">
    <animate attributeName="opacity" values="1;0" keyTimes="0;1" dur="0.44642857142857145s" begin="-0.3660714285714286s" repeatCount="indefinite"></animate>
  </rect>
</g><g transform="rotate(64.8 50 50)">
  <rect x="48.5" y="24" rx="1.5" ry="12" width="3" height="24" fill="#000000">
    <animate attributeName="opacity" values="1;0" keyTimes="0;1" dur="0.44642857142857145s" begin="-0.3616071428571429s" repeatCount="indefinite"></animate>
  </rect>
</g><g transform="rotate(68.4 50 50)">
  <rect x="48.5" y="24" rx="1.5" ry="12" width="3" height="24" fill="#3f3f3f">
    <animate attributeName="opacity" values="1;0" keyTimes="0;1" dur="0.44642857142857145s" begin="-0.3571428571428572s" repeatCount="indefinite"></animate>
  </rect>
</g><g transform="rotate(72 50 50)">
  <rect x="48.5" y="24" rx="1.5" ry="12" width="3" height="24" fill="#9c0404">
    <animate attributeName="opacity" values="1;0" keyTimes="0;1" dur="0.44642857142857145s" begin="-0.35267857142857145s" repeatCount="indefinite"></animate>
  </rect>
</g><g transform="rotate(75.6 50 50)">
  <rect x="48.5" y="24" rx="1.5" ry="12" width="3" height="24" fill="#5a0b0b">
    <animate attributeName="opacity" values="1;0" keyTimes="0;1" dur="0.44642857142857145s" begin="-0.34821428571428575s" repeatCount="indefinite"></animate>
  </rect>
</g><g transform="rotate(79.2 50 50)">
  <rect x="48.5" y="24" rx="1.5" ry="12" width="3" height="24" fill="#290e0e">
    <animate attributeName="opacity" values="1;0" keyTimes="0;1" dur="0.44642857142857145s" begin="-0.34375000000000006s" repeatCount="indefinite"></animate>
  </rect>
</g><g transform="rotate(82.8 50 50)">
  <rect x="48.5" y="24" rx="1.5" ry="12" width="3" height="24" fill="#000000">
    <animate attributeName="opacity" values="1;0" keyTimes="0;1" dur="0.44642857142857145s" begin="-0.3392857142857143s" repeatCount="indefinite"></animate>
  </rect>
</g><g transform="rotate(86.4 50 50)">
  <rect x="48.5" y="24" rx="1.5" ry="12" width="3" height="24" fill="#3f3f3f">
    <animate attributeName="opacity" values="1;0" keyTimes="0;1" dur="0.44642857142857145s" begin="-0.3348214285714286s" repeatCount="indefinite"></animate>
  </rect>
</g><g transform="rotate(90 50 50)">
  <rect x="48.5" y="24" rx="1.5" ry="12" width="3" height="24" fill="#9c0404">
    <animate attributeName="opacity" values="1;0" keyTimes="0;1" dur="0.44642857142857145s" begin="-0.3303571428571429s" repeatCount="indefinite"></animate>
  </rect>
</g><g transform="rotate(93.6 50 50)">
  <rect x="48.5" y="24" rx="1.5" ry="12" width="3" height="24" fill="#5a0b0b">
    <animate attributeName="opacity" values="1;0" keyTimes="0;1" dur="0.44642857142857145s" begin="-0.3258928571428572s" repeatCount="indefinite"></animate>
  </rect>
</g><g transform="rotate(97.2 50 50)">
  <rect x="48.5" y="24" rx="1.5" ry="12" width="3" height="24" fill="#290e0e">
    <animate attributeName="opacity" values="1;0" keyTimes="0;1" dur="0.44642857142857145s" begin="-0.32142857142857145s" repeatCount="indefinite"></animate>
  </rect>
</g><g transform="rotate(100.8 50 50)">
  <rect x="48.5" y="24" rx="1.5" ry="12" width="3" height="24" fill="#000000">
    <animate attributeName="opacity" values="1;0" keyTimes="0;1" dur="0.44642857142857145s" begin="-0.31696428571428575s" repeatCount="indefinite"></animate>
  </rect>
</g><g transform="rotate(104.4 50 50)">
  <rect x="48.5" y="24" rx="1.5" ry="12" width="3" height="24" fill="#3f3f3f">
    <animate attributeName="opacity" values="1;0" keyTimes="0;1" dur="0.44642857142857145s" begin="-0.31250000000000006s" repeatCount="indefinite"></animate>
  </rect>
</g><g transform="rotate(108 50 50)">
  <rect x="48.5" y="24" rx="1.5" ry="12" width="3" height="24" fill="#9c0404">
    <animate attributeName="opacity" values="1;0" keyTimes="0;1" dur="0.44642857142857145s" begin="-0.3080357142857143s" repeatCount="indefinite"></animate>
  </rect>
</g><g transform="rotate(111.6 50 50)">
  <rect x="48.5" y="24" rx="1.5" ry="12" width="3" height="24" fill="#5a0b0b">
    <animate attributeName="opacity" values="1;0" keyTimes="0;1" dur="0.44642857142857145s" begin="-0.3035714285714286s" repeatCount="indefinite"></animate>
  </rect>
</g><g transform="rotate(115.2 50 50)">
  <rect x="48.5" y="24" rx="1.5" ry="12" width="3" height="24" fill="#290e0e">
    <animate attributeName="opacity" values="1;0" keyTimes="0;1" dur="0.44642857142857145s" begin="-0.2991071428571429s" repeatCount="indefinite"></animate>
  </rect>
</g><g transform="rotate(118.8 50 50)">
  <rect x="48.5" y="24" rx="1.5" ry="12" width="3" height="24" fill="#000000">
    <animate attributeName="opacity" values="1;0" keyTimes="0;1" dur="0.44642857142857145s" begin="-0.2946428571428572s" repeatCount="indefinite"></animate>
  </rect>
</g><g transform="rotate(122.4 50 50)">
  <rect x="48.5" y="24" rx="1.5" ry="12" width="3" height="24" fill="#3f3f3f">
    <animate attributeName="opacity" values="1;0" keyTimes="0;1" dur="0.44642857142857145s" begin="-0.29017857142857145s" repeatCount="indefinite"></animate>
  </rect>
</g><g transform="rotate(126 50 50)">
  <rect x="48.5" y="24" rx="1.5" ry="12" width="3" height="24" fill="#9c0404">
    <animate attributeName="opacity" values="1;0" keyTimes="0;1" dur="0.44642857142857145s" begin="-0.28571428571428575s" repeatCount="indefinite"></animate>
  </rect>
</g><g transform="rotate(129.6 50 50)">
  <rect x="48.5" y="24" rx="1.5" ry="12" width="3" height="24" fill="#5a0b0b">
    <animate attributeName="opacity" values="1;0" keyTimes="0;1" dur="0.44642857142857145s" begin="-0.28125000000000006s" repeatCount="indefinite"></animate>
  </rect>
</g><g transform="rotate(133.2 50 50)">
  <rect x="48.5" y="24" rx="1.5" ry="12" width="3" height="24" fill="#290e0e">
    <animate attributeName="opacity" values="1;0" keyTimes="0;1" dur="0.44642857142857145s" begin="-0.2767857142857143s" repeatCount="indefinite"></animate>
  </rect>
</g><g transform="rotate(136.8 50 50)">
  <rect x="48.5" y="24" rx="1.5" ry="12" width="3" height="24" fill="#000000">
    <animate attributeName="opacity" values="1;0" keyTimes="0;1" dur="0.44642857142857145s" begin="-0.2723214285714286s" repeatCount="indefinite"></animate>
  </rect>
</g><g transform="rotate(140.4 50 50)">
  <rect x="48.5" y="24" rx="1.5" ry="12" width="3" height="24" fill="#3f3f3f">
    <animate attributeName="opacity" values="1;0" keyTimes="0;1" dur="0.44642857142857145s" begin="-0.2678571428571429s" repeatCount="indefinite"></animate>
  </rect>
</g><g transform="rotate(144 50 50)">
  <rect x="48.5" y="24" rx="1.5" ry="12" width="3" height="24" fill="#9c0404">
    <animate attributeName="opacity" values="1;0" keyTimes="0;1" dur="0.44642857142857145s" begin="-0.26339285714285715s" repeatCount="indefinite"></animate>
  </rect>
</g><g transform="rotate(147.6 50 50)">
  <rect x="48.5" y="24" rx="1.5" ry="12" width="3" height="24" fill="#5a0b0b">
    <animate attributeName="opacity" values="1;0" keyTimes="0;1" dur="0.44642857142857145s" begin="-0.25892857142857145s" repeatCount="indefinite"></animate>
  </rect>
</g><g transform="rotate(151.2 50 50)">
  <rect x="48.5" y="24" rx="1.5" ry="12" width="3" height="24" fill="#290e0e">
    <animate attributeName="opacity" values="1;0" keyTimes="0;1" dur="0.44642857142857145s" begin="-0.25446428571428575s" repeatCount="indefinite"></animate>
  </rect>
</g><g transform="rotate(154.8 50 50)">
  <rect x="48.5" y="24" rx="1.5" ry="12" width="3" height="24" fill="#000000">
    <animate attributeName="opacity" values="1;0" keyTimes="0;1" dur="0.44642857142857145s" begin="-0.25000000000000006s" repeatCount="indefinite"></animate>
  </rect>
</g><g transform="rotate(158.4 50 50)">
  <rect x="48.5" y="24" rx="1.5" ry="12" width="3" height="24" fill="#3f3f3f">
    <animate attributeName="opacity" values="1;0" keyTimes="0;1" dur="0.44642857142857145s" begin="-0.24553571428571433s" repeatCount="indefinite"></animate>
  </rect>
</g><g transform="rotate(162 50 50)">
  <rect x="48.5" y="24" rx="1.5" ry="12" width="3" height="24" fill="#9c0404">
    <animate attributeName="opacity" values="1;0" keyTimes="0;1" dur="0.44642857142857145s" begin="-0.2410714285714286s" repeatCount="indefinite"></animate>
  </rect>
</g><g transform="rotate(165.6 50 50)">
  <rect x="48.5" y="24" rx="1.5" ry="12" width="3" height="24" fill="#5a0b0b">
    <animate attributeName="opacity" values="1;0" keyTimes="0;1" dur="0.44642857142857145s" begin="-0.23660714285714288s" repeatCount="indefinite"></animate>
  </rect>
</g><g transform="rotate(169.2 50 50)">
  <rect x="48.5" y="24" rx="1.5" ry="12" width="3" height="24" fill="#290e0e">
    <animate attributeName="opacity" values="1;0" keyTimes="0;1" dur="0.44642857142857145s" begin="-0.23214285714285718s" repeatCount="indefinite"></animate>
  </rect>
</g><g transform="rotate(172.8 50 50)">
  <rect x="48.5" y="24" rx="1.5" ry="12" width="3" height="24" fill="#000000">
    <animate attributeName="opacity" values="1;0" keyTimes="0;1" dur="0.44642857142857145s" begin="-0.22767857142857145s" repeatCount="indefinite"></animate>
  </rect>
</g><g transform="rotate(176.4 50 50)">
  <rect x="48.5" y="24" rx="1.5" ry="12" width="3" height="24" fill="#3f3f3f">
    <animate attributeName="opacity" values="1;0" keyTimes="0;1" dur="0.44642857142857145s" begin="-0.22321428571428575s" repeatCount="indefinite"></animate>
  </rect>
</g><g transform="rotate(180 50 50)">
  <rect x="48.5" y="24" rx="1.5" ry="12" width="3" height="24" fill="#9c0404">
    <animate attributeName="opacity" values="1;0" keyTimes="0;1" dur="0.44642857142857145s" begin="-0.21875000000000003s" repeatCount="indefinite"></animate>
  </rect>
</g><g transform="rotate(183.6 50 50)">
  <rect x="48.5" y="24" rx="1.5" ry="12" width="3" height="24" fill="#5a0b0b">
    <animate attributeName="opacity" values="1;0" keyTimes="0;1" dur="0.44642857142857145s" begin="-0.2142857142857143s" repeatCount="indefinite"></animate>
  </rect>
</g><g transform="rotate(187.2 50 50)">
  <rect x="48.5" y="24" rx="1.5" ry="12" width="3" height="24" fill="#290e0e">
    <animate attributeName="opacity" values="1;0" keyTimes="0;1" dur="0.44642857142857145s" begin="-0.2098214285714286s" repeatCount="indefinite"></animate>
  </rect>
</g><g transform="rotate(190.8 50 50)">
  <rect x="48.5" y="24" rx="1.5" ry="12" width="3" height="24" fill="#000000">
    <animate attributeName="opacity" values="1;0" keyTimes="0;1" dur="0.44642857142857145s" begin="-0.20535714285714288s" repeatCount="indefinite"></animate>
  </rect>
</g><g transform="rotate(194.4 50 50)">
  <rect x="48.5" y="24" rx="1.5" ry="12" width="3" height="24" fill="#3f3f3f">
    <animate attributeName="opacity" values="1;0" keyTimes="0;1" dur="0.44642857142857145s" begin="-0.20089285714285718s" repeatCount="indefinite"></animate>
  </rect>
</g><g transform="rotate(198 50 50)">
  <rect x="48.5" y="24" rx="1.5" ry="12" width="3" height="24" fill="#9c0404">
    <animate attributeName="opacity" values="1;0" keyTimes="0;1" dur="0.44642857142857145s" begin="-0.19642857142857145s" repeatCount="indefinite"></animate>
  </rect>
</g><g transform="rotate(201.6 50 50)">
  <rect x="48.5" y="24" rx="1.5" ry="12" width="3" height="24" fill="#5a0b0b">
    <animate attributeName="opacity" values="1;0" keyTimes="0;1" dur="0.44642857142857145s" begin="-0.19196428571428573s" repeatCount="indefinite"></animate>
  </rect>
</g><g transform="rotate(205.2 50 50)">
  <rect x="48.5" y="24" rx="1.5" ry="12" width="3" height="24" fill="#290e0e">
    <animate attributeName="opacity" values="1;0" keyTimes="0;1" dur="0.44642857142857145s" begin="-0.18750000000000003s" repeatCount="indefinite"></animate>
  </rect>
</g><g transform="rotate(208.8 50 50)">
  <rect x="48.5" y="24" rx="1.5" ry="12" width="3" height="24" fill="#000000">
    <animate attributeName="opacity" values="1;0" keyTimes="0;1" dur="0.44642857142857145s" begin="-0.1830357142857143s" repeatCount="indefinite"></animate>
  </rect>
</g><g transform="rotate(212.4 50 50)">
  <rect x="48.5" y="24" rx="1.5" ry="12" width="3" height="24" fill="#3f3f3f">
    <animate attributeName="opacity" values="1;0" keyTimes="0;1" dur="0.44642857142857145s" begin="-0.1785714285714286s" repeatCount="indefinite"></animate>
  </rect>
</g><g transform="rotate(216 50 50)">
  <rect x="48.5" y="24" rx="1.5" ry="12" width="3" height="24" fill="#9c0404">
    <animate attributeName="opacity" values="1;0" keyTimes="0;1" dur="0.44642857142857145s" begin="-0.17410714285714288s" repeatCount="indefinite"></animate>
  </rect>
</g><g transform="rotate(219.6 50 50)">
  <rect x="48.5" y="24" rx="1.5" ry="12" width="3" height="24" fill="#5a0b0b">
    <animate attributeName="opacity" values="1;0" keyTimes="0;1" dur="0.44642857142857145s" begin="-0.16964285714285715s" repeatCount="indefinite"></animate>
  </rect>
</g><g transform="rotate(223.2 50 50)">
  <rect x="48.5" y="24" rx="1.5" ry="12" width="3" height="24" fill="#290e0e">
    <animate attributeName="opacity" values="1;0" keyTimes="0;1" dur="0.44642857142857145s" begin="-0.16517857142857145s" repeatCount="indefinite"></animate>
  </rect>
</g><g transform="rotate(226.8 50 50)">
  <rect x="48.5" y="24" rx="1.5" ry="12" width="3" height="24" fill="#000000">
    <animate attributeName="opacity" values="1;0" keyTimes="0;1" dur="0.44642857142857145s" begin="-0.16071428571428573s" repeatCount="indefinite"></animate>
  </rect>
</g><g transform="rotate(230.4 50 50)">
  <rect x="48.5" y="24" rx="1.5" ry="12" width="3" height="24" fill="#3f3f3f">
    <animate attributeName="opacity" values="1;0" keyTimes="0;1" dur="0.44642857142857145s" begin="-0.15625000000000003s" repeatCount="indefinite"></animate>
  </rect>
</g><g transform="rotate(234 50 50)">
  <rect x="48.5" y="24" rx="1.5" ry="12" width="3" height="24" fill="#9c0404">
    <animate attributeName="opacity" values="1;0" keyTimes="0;1" dur="0.44642857142857145s" begin="-0.1517857142857143s" repeatCount="indefinite"></animate>
  </rect>
</g><g transform="rotate(237.6 50 50)">
  <rect x="48.5" y="24" rx="1.5" ry="12" width="3" height="24" fill="#5a0b0b">
    <animate attributeName="opacity" values="1;0" keyTimes="0;1" dur="0.44642857142857145s" begin="-0.1473214285714286s" repeatCount="indefinite"></animate>
  </rect>
</g><g transform="rotate(241.2 50 50)">
  <rect x="48.5" y="24" rx="1.5" ry="12" width="3" height="24" fill="#290e0e">
    <animate attributeName="opacity" values="1;0" keyTimes="0;1" dur="0.44642857142857145s" begin="-0.14285714285714288s" repeatCount="indefinite"></animate>
  </rect>
</g><g transform="rotate(244.8 50 50)">
  <rect x="48.5" y="24" rx="1.5" ry="12" width="3" height="24" fill="#000000">
    <animate attributeName="opacity" values="1;0" keyTimes="0;1" dur="0.44642857142857145s" begin="-0.13839285714285715s" repeatCount="indefinite"></animate>
  </rect>
</g><g transform="rotate(248.4 50 50)">
  <rect x="48.5" y="24" rx="1.5" ry="12" width="3" height="24" fill="#3f3f3f">
    <animate attributeName="opacity" values="1;0" keyTimes="0;1" dur="0.44642857142857145s" begin="-0.13392857142857145s" repeatCount="indefinite"></animate>
  </rect>
</g><g transform="rotate(252 50 50)">
  <rect x="48.5" y="24" rx="1.5" ry="12" width="3" height="24" fill="#9c0404">
    <animate attributeName="opacity" values="1;0" keyTimes="0;1" dur="0.44642857142857145s" begin="-0.12946428571428573s" repeatCount="indefinite"></animate>
  </rect>
</g><g transform="rotate(255.6 50 50)">
  <rect x="48.5" y="24" rx="1.5" ry="12" width="3" height="24" fill="#5a0b0b">
    <animate attributeName="opacity" values="1;0" keyTimes="0;1" dur="0.44642857142857145s" begin="-0.12500000000000003s" repeatCount="indefinite"></animate>
  </rect>
</g><g transform="rotate(259.2 50 50)">
  <rect x="48.5" y="24" rx="1.5" ry="12" width="3" height="24" fill="#290e0e">
    <animate attributeName="opacity" values="1;0" keyTimes="0;1" dur="0.44642857142857145s" begin="-0.1205357142857143s" repeatCount="indefinite"></animate>
  </rect>
</g><g transform="rotate(262.8 50 50)">
  <rect x="48.5" y="24" rx="1.5" ry="12" width="3" height="24" fill="#000000">
    <animate attributeName="opacity" values="1;0" keyTimes="0;1" dur="0.44642857142857145s" begin="-0.11607142857142859s" repeatCount="indefinite"></animate>
  </rect>
</g><g transform="rotate(266.4 50 50)">
  <rect x="48.5" y="24" rx="1.5" ry="12" width="3" height="24" fill="#3f3f3f">
    <animate attributeName="opacity" values="1;0" keyTimes="0;1" dur="0.44642857142857145s" begin="-0.11160714285714288s" repeatCount="indefinite"></animate>
  </rect>
</g><g transform="rotate(270 50 50)">
  <rect x="48.5" y="24" rx="1.5" ry="12" width="3" height="24" fill="#9c0404">
    <animate attributeName="opacity" values="1;0" keyTimes="0;1" dur="0.44642857142857145s" begin="-0.10714285714285715s" repeatCount="indefinite"></animate>
  </rect>
</g><g transform="rotate(273.6 50 50)">
  <rect x="48.5" y="24" rx="1.5" ry="12" width="3" height="24" fill="#5a0b0b">
    <animate attributeName="opacity" values="1;0" keyTimes="0;1" dur="0.44642857142857145s" begin="-0.10267857142857144s" repeatCount="indefinite"></animate>
  </rect>
</g><g transform="rotate(277.2 50 50)">
  <rect x="48.5" y="24" rx="1.5" ry="12" width="3" height="24" fill="#290e0e">
    <animate attributeName="opacity" values="1;0" keyTimes="0;1" dur="0.44642857142857145s" begin="-0.09821428571428573s" repeatCount="indefinite"></animate>
  </rect>
</g><g transform="rotate(280.8 50 50)">
  <rect x="48.5" y="24" rx="1.5" ry="12" width="3" height="24" fill="#000000">
    <animate attributeName="opacity" values="1;0" keyTimes="0;1" dur="0.44642857142857145s" begin="-0.09375000000000001s" repeatCount="indefinite"></animate>
  </rect>
</g><g transform="rotate(284.4 50 50)">
  <rect x="48.5" y="24" rx="1.5" ry="12" width="3" height="24" fill="#3f3f3f">
    <animate attributeName="opacity" values="1;0" keyTimes="0;1" dur="0.44642857142857145s" begin="-0.0892857142857143s" repeatCount="indefinite"></animate>
  </rect>
</g><g transform="rotate(288 50 50)">
  <rect x="48.5" y="24" rx="1.5" ry="12" width="3" height="24" fill="#9c0404">
    <animate attributeName="opacity" values="1;0" keyTimes="0;1" dur="0.44642857142857145s" begin="-0.08482142857142858s" repeatCount="indefinite"></animate>
  </rect>
</g><g transform="rotate(291.6 50 50)">
  <rect x="48.5" y="24" rx="1.5" ry="12" width="3" height="24" fill="#5a0b0b">
    <animate attributeName="opacity" values="1;0" keyTimes="0;1" dur="0.44642857142857145s" begin="-0.08035714285714286s" repeatCount="indefinite"></animate>
  </rect>
</g><g transform="rotate(295.2 50 50)">
  <rect x="48.5" y="24" rx="1.5" ry="12" width="3" height="24" fill="#290e0e">
    <animate attributeName="opacity" values="1;0" keyTimes="0;1" dur="0.44642857142857145s" begin="-0.07589285714285715s" repeatCount="indefinite"></animate>
  </rect>
</g><g transform="rotate(298.8 50 50)">
  <rect x="48.5" y="24" rx="1.5" ry="12" width="3" height="24" fill="#000000">
    <animate attributeName="opacity" values="1;0" keyTimes="0;1" dur="0.44642857142857145s" begin="-0.07142857142857144s" repeatCount="indefinite"></animate>
  </rect>
</g><g transform="rotate(302.4 50 50)">
  <rect x="48.5" y="24" rx="1.5" ry="12" width="3" height="24" fill="#3f3f3f">
    <animate attributeName="opacity" values="1;0" keyTimes="0;1" dur="0.44642857142857145s" begin="-0.06696428571428573s" repeatCount="indefinite"></animate>
  </rect>
</g><g transform="rotate(306 50 50)">
  <rect x="48.5" y="24" rx="1.5" ry="12" width="3" height="24" fill="#9c0404">
    <animate attributeName="opacity" values="1;0" keyTimes="0;1" dur="0.44642857142857145s" begin="-0.06250000000000001s" repeatCount="indefinite"></animate>
  </rect>
</g><g transform="rotate(309.6 50 50)">
  <rect x="48.5" y="24" rx="1.5" ry="12" width="3" height="24" fill="#5a0b0b">
    <animate attributeName="opacity" values="1;0" keyTimes="0;1" dur="0.44642857142857145s" begin="-0.058035714285714295s" repeatCount="indefinite"></animate>
  </rect>
</g><g transform="rotate(313.2 50 50)">
  <rect x="48.5" y="24" rx="1.5" ry="12" width="3" height="24" fill="#290e0e">
    <animate attributeName="opacity" values="1;0" keyTimes="0;1" dur="0.44642857142857145s" begin="-0.053571428571428575s" repeatCount="indefinite"></animate>
  </rect>
</g><g transform="rotate(316.8 50 50)">
  <rect x="48.5" y="24" rx="1.5" ry="12" width="3" height="24" fill="#000000">
    <animate attributeName="opacity" values="1;0" keyTimes="0;1" dur="0.44642857142857145s" begin="-0.04910714285714286s" repeatCount="indefinite"></animate>
  </rect>
</g><g transform="rotate(320.4 50 50)">
  <rect x="48.5" y="24" rx="1.5" ry="12" width="3" height="24" fill="#3f3f3f">
    <animate attributeName="opacity" values="1;0" keyTimes="0;1" dur="0.44642857142857145s" begin="-0.04464285714285715s" repeatCount="indefinite"></animate>
  </rect>
</g><g transform="rotate(324 50 50)">
  <rect x="48.5" y="24" rx="1.5" ry="12" width="3" height="24" fill="#9c0404">
    <animate attributeName="opacity" values="1;0" keyTimes="0;1" dur="0.44642857142857145s" begin="-0.04017857142857143s" repeatCount="indefinite"></animate>
  </rect>
</g><g transform="rotate(327.6 50 50)">
  <rect x="48.5" y="24" rx="1.5" ry="12" width="3" height="24" fill="#5a0b0b">
    <animate attributeName="opacity" values="1;0" keyTimes="0;1" dur="0.44642857142857145s" begin="-0.03571428571428572s" repeatCount="indefinite"></animate>
  </rect>
</g><g transform="rotate(331.2 50 50)">
  <rect x="48.5" y="24" rx="1.5" ry="12" width="3" height="24" fill="#290e0e">
    <animate attributeName="opacity" values="1;0" keyTimes="0;1" dur="0.44642857142857145s" begin="-0.03125000000000001s" repeatCount="indefinite"></animate>
  </rect>
</g><g transform="rotate(334.8 50 50)">
  <rect x="48.5" y="24" rx="1.5" ry="12" width="3" height="24" fill="#000000">
    <animate attributeName="opacity" values="1;0" keyTimes="0;1" dur="0.44642857142857145s" begin="-0.026785714285714288s" repeatCount="indefinite"></animate>
  </rect>
</g><g transform="rotate(338.4 50 50)">
  <rect x="48.5" y="24" rx="1.5" ry="12" width="3" height="24" fill="#3f3f3f">
    <animate attributeName="opacity" values="1;0" keyTimes="0;1" dur="0.44642857142857145s" begin="-0.022321428571428575s" repeatCount="indefinite"></animate>
  </rect>
</g><g transform="rotate(342 50 50)">
  <rect x="48.5" y="24" rx="1.5" ry="12" width="3" height="24" fill="#9c0404">
    <animate attributeName="opacity" values="1;0" keyTimes="0;1" dur="0.44642857142857145s" begin="-0.01785714285714286s" repeatCount="indefinite"></animate>
  </rect>
</g><g transform="rotate(345.6 50 50)">
  <rect x="48.5" y="24" rx="1.5" ry="12" width="3" height="24" fill="#5a0b0b">
    <animate attributeName="opacity" values="1;0" keyTimes="0;1" dur="0.44642857142857145s" begin="-0.013392857142857144s" repeatCount="indefinite"></animate>
  </rect>
</g><g transform="rotate(349.2 50 50)">
  <rect x="48.5" y="24" rx="1.5" ry="12" width="3" height="24" fill="#290e0e">
    <animate attributeName="opacity" values="1;0" keyTimes="0;1" dur="0.44642857142857145s" begin="-0.00892857142857143s" repeatCount="indefinite"></animate>
  </rect>
</g><g transform="rotate(352.8 50 50)">
  <rect x="48.5" y="24" rx="1.5" ry="12" width="3" height="24" fill="#000000">
    <animate attributeName="opacity" values="1;0" keyTimes="0;1" dur="0.44642857142857145s" begin="-0.004464285714285715s" repeatCount="indefinite"></animate>
  </rect>
</g><g transform="rotate(356.4 50 50)">
  <rect x="48.5" y="24" rx="1.5" ry="12" width="3" height="24" fill="#3f3f3f">
    <animate attributeName="opacity" values="1;0" keyTimes="0;1" dur="0.44642857142857145s" begin="0s" repeatCount="indefinite"></animate>
  </rect>
</g>
<!-- [ldio] generated by https://loading.io/ --></svg>